# xmcd
#
# Track frame offsets: 
#        150
#        17933
#        31751
#        44651
#        59334
#        71385
#        86200
#        111503
#        131379
#        155767
#        172450
#        191433
#        216111
#        234724
#
# Disc length: 3356 seconds
#
# Revision: 0
# Processed by: cddbd v1.5.2PL0 Copyright (c) Steve Scherf et al.
# Submitted via: ExactAudioCopy v0.95b4
#
DISCID=d10d1a0e
DTITLE=Eric Clapton - Double Trouble [CD3]
DYEAR=1995
DGENRE=Blues
TTITLE0=Motherless child
TTITLE1=Malted milk
TTITLE2=From for until late
TTITLE3=How long blues
TTITLE4=Kidman blues
TTITLE5=I'm gonna cut your head
TTITLE6=Forty-four blues
TTITLE7=Blues all day long
TTITLE8=Standing around crying
TTITLE9=Hoochie coochie man
TTITLE10=It hurts me too
TTITLE11=Third degree
TTITLE12=Reconsider baby
TTITLE13=Sinner's prayer
EXTD=
EXTT0=
EXTT1=
EXTT2=
EXTT3=
EXTT4=
EXTT5=
EXTT6=
EXTT7=
EXTT8=
EXTT9=
EXTT10=
EXTT11=
EXTT12=
EXTT13=
PLAYORDER=
